<svg width="105" height="105" viewBox="0 0 105 105" fill="none" xmlns="http://www.w3.org/2000/svg">
<circle cx="52.5" cy="52.5" r="52.5" fill="#F16262"/>
<mask id="mask0_1663_744" style="mask-type:luminance" maskUnits="userSpaceOnUse" x="11" y="15" width="85" height="90">
<path d="M95.1018 98.8396C85.2204 102.932 73.8042 103.936 62.9403 104.048C49.533 104.187 35.7315 103.216 23.6149 97.4729C18.9924 95.2817 14.654 92.2681 11 88.6341V15H95.1018V98.8396Z" fill="white"/>
</mask>
<g mask="url(#mask0_1663_744)">
<path d="M46.9357 48.8784C46.8577 51.2797 46.7776 53.681 46.6996 56.0824C46.6996 56.0824 50.8338 55.8102 51.0199 55.7822C51.0239 53.3789 51.0299 50.9756 51.0339 48.5723L46.9357 48.8784Z" fill="white"/>
<path d="M46.8456 51.6279C47.8741 51.9021 49.377 52.1142 51.0279 51.73C51.0299 50.6774 51.0319 49.6248 51.0339 48.5723L46.9356 48.8784C46.9056 49.7949 46.8756 50.7114 46.8456 51.6279Z" fill="#D15046"/>
<path d="M58.428 38.8703C58.8462 38.282 59.6687 38.0559 60.363 38.258C61.0554 38.4581 61.6057 39.0324 61.8779 39.7008C62.15 40.3691 62.168 41.1195 62.04 41.8299C61.8439 42.9085 61.2956 43.9411 60.4291 44.6134C59.5626 45.2838 58.368 45.556 57.3274 45.2078L58.43 38.8723L58.428 38.8703Z" fill="white"/>
<path d="M59.1623 40.8495C59.7306 38.9905 60.5331 36.9594 60.7992 35.0343C61.0654 33.1093 61.0153 31.1062 60.365 29.2732C59.0062 25.4411 55.0061 22.8437 50.9418 22.7056C46.8776 22.5675 42.9095 24.6747 40.3461 27.8344C38.6231 28.2486 36.9943 30.2117 36.552 32.2948C36.1098 34.38 36.6161 36.5432 37.1283 38.5242C37.2424 40.2192 37.7387 41.8861 38.9293 43.649C45.5489 45.6681 52.6468 45.422 59.1623 40.8495Z" fill="#252525"/>
<path d="M39.2577 38.7171C38.2491 37.6225 36.4141 37.6285 35.2275 38.527C34.0408 39.4255 33.6006 41.1344 34.0788 42.5432C34.5571 43.952 35.8598 45.0105 37.3126 45.3327C38.7654 45.6549 40.3262 45.2827 41.5689 44.4642L39.2577 38.7171Z" fill="white"/>
<path d="M35.8119 41.4794C36.4002 40.843 37.3687 40.5869 38.1952 40.851" stroke="#2E2854" stroke-width="0.5" stroke-linecap="round" stroke-linejoin="round"/>
<path d="M36.9825 40.8105C37.0906 41.5449 37.4248 42.2473 37.9291 42.7916" stroke="#2E2854" stroke-width="0.5" stroke-linecap="round" stroke-linejoin="round"/>
<path d="M59.1564 40.2871C59.1184 39.2566 58.8582 38.236 58.398 37.3135C56.569 38.242 54.4859 38.5722 52.5528 38.16C50.6198 37.7477 48.8548 36.5951 47.7002 34.9902C47.384 35.9928 46.3915 36.8332 45.2428 37.1434C44.0942 37.4556 42.8115 37.2315 41.835 36.5511C41.877 37.3075 41.7409 38.156 41.5108 38.9784C41.4308 39.2646 41.3227 39.5727 41.0706 39.7308C40.7444 39.9369 40.2881 39.8009 40.02 39.5227C39.7518 39.2446 39.6258 38.8623 39.2576 38.7183C39.3476 42.1862 40.4962 45.7781 43.0937 48.0794C45.9232 50.5867 50.3176 51.145 53.6834 49.4241C57.0493 47.7052 59.2865 43.815 59.1564 40.2891V40.2871Z" fill="white"/>
<path d="M57.5375 45.848C57.4534 45.7099 57.3573 45.5798 57.2453 45.4618C56.5629 44.7474 55.4063 44.5373 54.5158 44.9635C53.6253 45.3917 53.065 46.4243 53.1951 47.4048C53.2851 48.0892 53.7074 48.7095 54.2857 49.0837C55.5964 48.2813 56.709 47.1447 57.5394 45.846L57.5375 45.848Z" fill="#FFB2AC"/>
<path d="M45.631 48.2156C46.1053 47.3471 45.9592 46.1785 45.2648 45.4501C44.5824 44.7357 43.4258 44.5256 42.5353 44.9518C42.0351 45.1919 41.6408 45.6221 41.4127 46.1264C41.887 46.8428 42.4473 47.4992 43.0976 48.0755C43.5699 48.4937 44.0882 48.8579 44.6365 49.1661C45.0527 48.952 45.4089 48.6238 45.633 48.2136L45.631 48.2156Z" fill="#FFB2AC"/>
<path d="M50.9317 39.8984C51.3539 40.3007 51.6961 40.7869 51.9283 41.3212L50.8977 41.5233" stroke="#2E2854" stroke-width="0.5" stroke-linecap="round" stroke-linejoin="round"/>
<path d="M44.1881 40.4468C44.6203 40.0726 45.1987 39.8725 45.771 39.8965C46.3433 39.9225 46.8996 40.1746 47.2978 40.5868" stroke="#2E2854" stroke-width="0.5" stroke-linecap="round" stroke-linejoin="round"/>
<path d="M56.4327 40.5791C56.0145 40.1889 55.4442 39.9668 54.8719 39.9708C54.2996 39.9748 53.7333 40.2069 53.321 40.6031" stroke="#2E2854" stroke-width="0.5" stroke-linecap="round" stroke-linejoin="round"/>
<path d="M47.2418 43.5737C48.1223 44.13 49.1769 44.4062 50.2154 44.3522C51.256 44.2981 52.2746 43.9119 53.091 43.2676" stroke="#2E2854" stroke-width="0.5" stroke-linecap="round" stroke-linejoin="round"/>
<path d="M87.6498 72.3528C88.9605 70.5539 89.861 68.4547 90.2592 66.2635C89.2727 65.315 88.2341 64.7147 87.1255 64.3205C87.3016 62.9557 87.4657 61.591 87.4077 60.2242C87.3977 59.9921 87.3776 59.75 87.2556 59.5539C87.1315 59.3578 86.8694 59.2297 86.6613 59.3298C86.4892 59.4118 86.4131 59.6099 86.3511 59.79C85.7508 61.565 85.2625 63.378 84.8923 65.215L83.4575 70.4298L87.6478 72.3508L87.6498 72.3528Z" fill="white"/>
<path d="M87.1275 64.3224C87.3036 62.9577 87.4677 61.5929 87.4097 60.2262C87.3997 59.9941 87.3796 59.7519 87.2576 59.5558C87.1335 59.3597 86.8714 59.2317 86.6632 59.3317C86.4912 59.4138 86.4151 59.6119 86.3531 59.792C85.7528 61.5669 85.2645 63.3799 84.8943 65.2169" stroke="#2E2854" stroke-width="0.5" stroke-linecap="round" stroke-linejoin="round"/>
<path d="M90.5093 66.0326C90.4493 66.5409 90.2572 67.0312 89.955 67.4454C89.889 67.5355 89.8169 67.6215 89.7229 67.6775C89.6288 67.7336 89.5048 67.7536 89.4067 67.7035C89.2766 67.6375 89.2286 67.4794 89.2046 67.3374C89.0825 66.619 89.2746 65.8525 89.7209 65.2782C89.8149 65.1582 89.933 65.0361 90.0851 65.0181C90.2932 64.9921 90.4793 65.1762 90.5313 65.3783C90.5854 65.5804 90.5373 65.7945 90.5093 66.0306V66.0326Z" fill="white"/>
<path d="M90.5093 66.0326C90.4493 66.5409 90.2572 67.0312 89.955 67.4454C89.889 67.5355 89.8169 67.6215 89.7229 67.6775C89.6288 67.7336 89.5048 67.7536 89.4067 67.7035C89.2766 67.6375 89.2286 67.4794 89.2046 67.3374C89.0825 66.619 89.2746 65.8525 89.7209 65.2782C89.8149 65.1582 89.933 65.0361 90.0851 65.0181C90.2932 64.9921 90.4793 65.1762 90.5313 65.3783C90.5854 65.5804 90.5373 65.7945 90.5093 66.0306V66.0326Z" stroke="#2E2854" stroke-width="0.5" stroke-linecap="round" stroke-linejoin="round"/>
<path d="M89.5807 65.1768C89.4226 65.9532 89.2245 66.7977 88.5962 67.284C88.5021 67.356 88.3941 67.422 88.276 67.42C88.1399 67.42 88.0159 67.326 87.9458 67.2099C87.8758 67.0939 87.8518 66.9538 87.8418 66.8177C87.7917 66.1554 88.0479 65.515 88.298 64.9007C88.3781 64.7046 88.4601 64.5045 88.6022 64.3444C88.7422 64.1863 88.9544 64.0722 89.1645 64.1082C89.3926 64.1463 89.5667 64.3504 89.6267 64.5725C89.6888 64.7946 89.6147 65.0187 89.5827 65.1768H89.5807Z" fill="white"/>
<path d="M89.5807 65.1768C89.4226 65.9532 89.2245 66.7977 88.5962 67.284C88.5021 67.356 88.3941 67.422 88.276 67.42C88.1399 67.42 88.0159 67.326 87.9458 67.2099C87.8758 67.0939 87.8518 66.9538 87.8418 66.8177C87.7917 66.1554 88.0479 65.515 88.298 64.9007C88.3781 64.7046 88.4601 64.5045 88.6022 64.3444C88.7422 64.1863 88.9544 64.0722 89.1645 64.1082C89.3926 64.1463 89.5667 64.3504 89.6267 64.5725C89.6888 64.7946 89.6147 65.0187 89.5827 65.1768H89.5807Z" stroke="#2E2854" stroke-width="0.5" stroke-linecap="round" stroke-linejoin="round"/>
<path d="M88.5362 64.3785C88.4102 65.1909 88.066 65.9674 87.5517 66.6077C87.4296 66.7598 87.2636 66.9199 87.0694 66.8919C86.9274 66.8719 86.8133 66.7518 86.7653 66.6157C86.7153 66.4796 86.7193 66.3316 86.7293 66.1875C86.7613 65.6812 86.8593 65.1789 86.9814 64.6867C87.0514 64.4005 87.1355 64.1084 87.3216 63.8782C87.5077 63.6481 87.8199 63.498 88.1 63.5861C88.3822 63.6741 88.5863 64.0623 88.5362 64.3785Z" fill="white"/>
<path d="M88.5362 64.3785C88.4102 65.1909 88.066 65.9674 87.5517 66.6077C87.4296 66.7598 87.2636 66.9199 87.0694 66.8919C86.9274 66.8719 86.8133 66.7518 86.7653 66.6157C86.7153 66.4796 86.7193 66.3316 86.7293 66.1875C86.7613 65.6812 86.8593 65.1789 86.9814 64.6867C87.0514 64.4005 87.1355 64.1084 87.3216 63.8782C87.5077 63.6481 87.8199 63.498 88.1 63.5861C88.3822 63.6741 88.5863 64.0623 88.5362 64.3785Z" stroke="#2E2854" stroke-width="0.5" stroke-linecap="round" stroke-linejoin="round"/>
<path d="M82.2969 69.4989C82.6411 68.1481 82.9833 66.7954 83.3274 65.4447C83.4275 65.0545 83.5416 64.6402 83.8457 64.3801C84.1339 64.134 84.5341 64.0759 84.9103 64.0279L86.9934 63.7618C87.2476 63.7297 87.5457 63.7137 87.7158 63.9058C87.8639 64.0759 87.8359 64.3501 87.7078 64.5342C87.5798 64.7203 87.3736 64.8363 87.1715 64.9364C86.5252 65.2526 85.8328 65.4607 85.0964 65.8009C85.6407 65.8369 86.113 66.2251 86.3911 66.6933C86.6693 67.1616 86.7833 67.7079 86.8874 68.2442L83.4635 70.4334L82.2989 69.5009L82.2969 69.4989Z" fill="white"/>
<path d="M82.3989 69.1006C82.7091 67.8819 83.0193 66.6633 83.3274 65.4466C83.4275 65.0564 83.5415 64.6422 83.8457 64.382C84.1339 64.1359 84.5341 64.0779 84.9103 64.0298L86.9934 63.7637C87.2476 63.7317 87.5457 63.7157 87.7158 63.9078C87.8639 64.0779 87.8359 64.352 87.7078 64.5361C87.5797 64.7222 87.3736 64.8383 87.1715 64.9383C86.5252 65.2545 85.8328 65.4626 85.0964 65.8028C85.6407 65.8388 86.1129 66.227 86.3911 66.6953C86.6693 67.1636 86.7833 67.7099 86.8874 68.2461" stroke="#2E2854" stroke-width="0.5" stroke-linecap="round" stroke-linejoin="round"/>
<path d="M86.7893 75.2839C87.3796 74.3414 87.8559 73.3248 88.2001 72.2683C86.195 70.9335 84.2539 70.013 82.2388 69.3066C82.0187 69.8009 81.7986 70.2992 81.5745 70.7974L86.7913 75.2859L86.7893 75.2839Z" fill="white"/>
<path d="M60.377 83.1866C61.0513 86.3903 63.5927 89.0518 66.6624 90.1884C69.732 91.327 73.236 91.0228 76.2236 89.6861C79.2112 88.3494 81.7006 86.0381 83.5656 83.3467C85.4306 80.6572 86.7013 77.5935 87.6498 74.4598C85.7928 73.0711 83.6876 71.9304 81.5745 70.7958C80.4279 73.3292 79.1592 75.8826 77.3302 78.0378C76.4637 79.0583 75.3291 80.0429 73.9904 80.0148C73.0659 79.9948 72.2054 79.4765 71.5971 78.7822C70.9887 78.0878 70.5985 77.2293 70.2703 76.3669C68.3813 71.3982 68.1432 65.679 64.9394 61.4387C63.8008 59.9319 62.342 58.7032 60.7231 57.7207L60.379 83.1866H60.377Z" fill="#0084FF"/>
<g style="mix-blend-mode:multiply" opacity="0.15">
<path d="M76.2235 89.6862C79.2112 88.3494 81.7005 86.0382 83.5655 83.3467C84.1378 82.5203 84.6541 81.6598 85.1224 80.7733C82.2208 83.4848 77.7224 86.6245 72.6016 86.3964C65.982 86.1002 62.0918 76.9252 60.527 72.2227L60.3789 83.1866C61.0533 86.3904 63.5947 89.0518 66.6643 90.1884C69.734 91.3271 73.2379 91.0229 76.2255 89.6862H76.2235Z" fill="#2E2854"/>
</g>
<path d="M82.4308 73.383C82.0486 73.2109 81.5463 73.375 81.3442 73.7412C81.1421 74.1074 81.2702 74.6236 81.6264 74.8458C81.9826 75.0679 82.5049 74.9578 82.735 74.6076C82.9651 74.2574 82.9311 73.6091 82.4308 73.383Z" fill="#2E2854"/>
<path d="M60.3768 83.1876C61.0512 86.3914 63.5926 89.0528 66.6623 90.1894C69.7319 91.328 73.2358 91.0239 76.2235 89.6872C79.2111 88.3504 81.7004 86.0392 83.5655 83.3477C85.4305 80.6582 86.7012 77.5946 87.6497 74.4609C85.7927 73.0721 83.6875 71.9315 81.5744 70.7969" stroke="#2E2854" stroke-width="0.5" stroke-linecap="round" stroke-linejoin="round"/>
<path d="M62.312 71.5176C63.4346 83.306 63.8108 95.1665 63.4406 107.003C63.4406 107.003 30.6888 107.221 30.5527 106.777C29.8743 94.6922 30.2005 82.0773 30.4386 69.2323L31.7614 57.0477C37.0422 54.4763 43.0695 53.3277 49.0968 53.952C52.0364 54.5063 54.988 55.1106 57.7595 56.2353C58.7801 56.6495 59.7786 57.1418 60.7251 57.7141L62.316 71.5136L62.312 71.5176Z" fill="#0084FF"/>
<path d="M49.9314 61.0515L54.2537 55.0803C52.5568 54.6241 50.8238 54.2799 49.0949 53.9537C47.2399 53.7616 45.3849 53.7376 43.5519 53.8716L49.9314 61.0496V61.0515Z" fill="white"/>
<path d="M54.2537 55.0798C54.2537 55.0798 52.4107 57.0768 49.6532 57.0488C46.8957 57.0208 43.5519 53.8711 43.5519 53.8711L49.9314 61.049L54.2537 55.0778V55.0798Z" fill="white"/>
<path d="M53.9916 66.0177C53.6094 65.8456 53.1091 66.0097 52.905 66.3759C52.7029 66.7421 52.8329 67.2584 53.1871 67.4805C53.5413 67.7026 54.0656 67.5906 54.2957 67.2424C54.5258 66.8922 54.4918 66.2419 53.9916 66.0177Z" fill="#2E2854"/>
<path d="M53.8395 74.2853C53.4573 74.1132 52.957 74.2773 52.7529 74.6435C52.5508 75.0097 52.6808 75.526 53.035 75.7481C53.3892 75.9702 53.9135 75.8602 54.1436 75.51C54.3737 75.1598 54.3397 74.5094 53.8395 74.2853Z" fill="#2E2854"/>
<path d="M49.9313 61.0508C50.6317 76.199 50.9939 91.8636 51.0159 107.054" stroke="#2E2854" stroke-width="0.5" stroke-linecap="round" stroke-linejoin="round"/>
<path d="M42.5193 53.9633C45.0106 56.3446 47.44 58.6699 49.9313 61.0512L46.8216 52.3965L42.5213 53.9633H42.5193Z" fill="#0084FF"/>
<path d="M42.5193 53.9633C45.0106 56.3446 47.44 58.6699 49.9313 61.0512L46.8216 52.3965L42.5213 53.9633H42.5193Z" stroke="#2E2854" stroke-width="0.5" stroke-linecap="round" stroke-linejoin="round"/>
<path d="M54.99 55.2852L49.9313 61.0504L51.0259 53L54.99 55.2852Z" fill="#0084FF"/>
<path d="M54.99 55.2852L49.9313 61.0504L51.0259 53L54.99 55.2852Z" stroke="#2E2854" stroke-width="0.5" stroke-linecap="round" stroke-linejoin="round"/>
<g style="mix-blend-mode:multiply" opacity="0.15">
<path d="M63.2406 84.4542C61.3415 79.2654 57.1272 74.6308 50.2095 74.1346C39.9299 73.3942 35.6736 85.3547 35.6736 85.3547L30.1826 84.176C30.1345 88.5844 30.1265 92.9508 30.2066 97.2632C33.6284 97.4553 36.0838 96.929 36.0838 96.929C36.0838 96.929 41.0205 103.725 49.431 104.559C56.2247 105.234 61.5617 101.365 63.5687 96.0285C63.5387 92.1704 63.4287 88.3123 63.2406 84.4582V84.4542Z" fill="#2E2854"/>
</g>
<g style="mix-blend-mode:multiply" opacity="0.15">
<path d="M32.5579 68.6387C32.5579 68.6387 31.5914 68.8968 30.4388 69.219V69.233C30.4068 70.8439 30.3767 72.4508 30.3447 74.0516L32.5579 68.6387Z" fill="#2E2854"/>
</g>
<path d="M62.312 71.5176C63.4346 83.306 63.8108 95.1665 63.4406 107.003" stroke="#2E2854" stroke-width="0.5" stroke-linecap="round" stroke-linejoin="round"/>
<path d="M58.6361 78.439C54.3298 74.7229 47.6041 74.1386 42.7194 77.0542C37.8348 79.9698 35.1553 86.1652 36.38 91.7202C37.6027 97.2752 42.6374 101.772 48.2945 102.366C53.9516 102.958 59.8088 99.6025 62.156 94.4217C64.5053 89.2388 63.3067 82.4692 58.6361 78.441V78.439Z" fill="#F7A145"/>
<path d="M55.6484 80.3464C52.1424 77.875 47.0577 77.9211 43.5998 80.4564C40.1399 82.9918 38.5651 87.8265 39.8678 91.9127C41.1705 95.9989 45.2507 99.0326 49.539 99.1006C53.8274 99.1666 58.0036 96.263 59.4324 92.2208C60.8612 88.1766 59.5725 83.1139 55.6504 80.3484L55.6484 80.3464Z" fill="#FF8330"/>
<g style="mix-blend-mode:multiply" opacity="0.15">
<path d="M62.156 94.419C63.4567 91.5494 63.6648 88.1956 62.8023 85.0879C63.0284 90.6509 60.8733 97.2765 54.4218 99.8399C47.7941 102.473 42.8274 100.062 39.9939 98.2491C42.2051 100.5 45.1527 102.037 48.2944 102.365C53.9515 102.958 59.8087 99.6018 62.156 94.421V94.419Z" fill="#2E2854"/>
</g>
<path d="M42.7195 77.0555C39.2996 79.0966 36.9684 82.7426 36.292 86.6527C37.1765 83.8212 39.1696 79.3867 44.9207 77.1575C48.9069 75.6127 53.3313 75.9889 57.4215 77.5317C53.1372 74.6602 47.1679 74.402 42.7175 77.0575L42.7195 77.0555Z" fill="#F5B878"/>
<path d="M55.6484 80.3464C52.1424 77.875 47.0577 77.9211 43.5998 80.4564C40.1399 82.9918 38.5651 87.8265 39.8678 91.9127C41.1705 95.9989 45.2507 99.0326 49.539 99.1006C53.8274 99.1666 58.0036 96.263 59.4324 92.2208C60.8612 88.1766 59.5725 83.1139 55.6504 80.3484L55.6484 80.3464Z" stroke="#2E2854" stroke-width="0.5" stroke-linecap="round" stroke-linejoin="round"/>
<path d="M54.7569 95.9561L52.1465 96.9336L46.2491 90.6279L47.1944 89.3066C47.5525 89.3066 47.9141 89.2744 48.2794 89.21C48.6446 89.1455 48.9848 89.0417 49.2999 88.8984C49.6221 88.748 49.905 88.5511 50.1485 88.3076C50.392 88.0641 50.571 87.7633 50.6856 87.4053H46.045L46.711 85.8906H50.7286C50.5639 85.2891 50.1736 84.8379 49.5577 84.5371C48.9418 84.2363 48.1684 84.0859 47.2374 84.0859H46.045L46.711 82.6357H55.5303L54.9503 84.0859H52.0713C52.4581 84.2721 52.7803 84.512 53.0381 84.8057C53.3031 85.0993 53.4929 85.4609 53.6075 85.8906H55.4659L54.9503 87.4053H53.6505C53.5717 87.9209 53.3962 88.3649 53.1241 88.7373C52.8519 89.1097 52.5046 89.4248 52.0821 89.6826C51.6667 89.9333 51.1833 90.1374 50.6319 90.2949C50.0876 90.4453 49.4932 90.5635 48.8487 90.6494L54.7569 95.9561Z" fill="black"/>
<path d="M35.8938 94.6218C38.5913 94.7799 41.3047 94.6318 43.9682 94.1815C45.409 94.3356 46.4315 94.2496 47.3921 93.9574C47.5201 93.9174 47.6502 93.8734 47.7543 93.7893C47.8583 93.7053 47.9324 93.5712 47.9123 93.4391C47.8763 93.201 47.5882 93.107 47.35 93.0669C46.7877 92.9729 46.2214 92.9008 45.6531 92.8508C46.7777 92.8328 47.8983 92.5146 48.8609 91.9303C49.0329 91.8243 49.2171 91.6882 49.2451 91.4861C49.2731 91.274 49.103 91.0759 48.9029 90.9998C48.7028 90.9238 48.4807 90.9378 48.2685 90.9558C47.5622 91.0118 46.8558 91.0678 46.1494 91.1239C47.1179 90.9018 48.0544 90.5356 48.9169 90.0373C49.105 89.9292 49.2951 89.8092 49.4172 89.6291C49.5372 89.449 49.5712 89.1928 49.4392 89.0187C49.2691 88.7966 48.9369 88.8126 48.6607 88.8486C47.9163 88.9487 47.1699 89.0487 46.4255 89.1488C47.32 88.9207 48.1905 88.6045 49.0229 88.2043C49.3551 88.0442 49.7353 87.762 49.6513 87.4039C49.6033 87.2037 49.4112 87.0637 49.211 87.0156C49.0109 86.9676 48.8008 86.9956 48.5967 87.0216C46.7337 87.2718 44.8707 87.5239 43.0077 87.774C43.7861 87.3138 44.4865 86.8996 45.0788 86.3653C45.2089 86.2492 45.3349 86.1211 45.401 85.9611C45.467 85.799 45.459 85.5969 45.3369 85.4728C45.1648 85.2967 44.8727 85.3527 44.6386 85.4228C43.63 85.7229 42.6275 86.0411 41.6389 86.3953C40.3222 86.8676 38.6453 87.0076 36.8863 86.9096L36.0119 91.1219L35.8978 94.6198L35.8938 94.6218Z" fill="white"/>
<path d="M46.4236 89.1484C45.7473 89.3205 45.0589 89.4426 44.3645 89.5126" stroke="#2E2854" stroke-width="0.5" stroke-linecap="round" stroke-linejoin="round"/>
<path d="M44.8468 91.3332C45.285 91.2911 45.7213 91.2211 46.1515 91.123" stroke="#2E2854" stroke-width="0.5" stroke-linecap="round" stroke-linejoin="round"/>
<path d="M44.8088 92.8047C45.089 92.8387 45.3711 92.8527 45.6533 92.8487" stroke="#2E2854" stroke-width="0.5" stroke-linecap="round" stroke-linejoin="round"/>
<path d="M36.5103 94.6518C39.0036 94.7539 41.507 94.5978 43.9683 94.1796C45.4091 94.3337 46.4317 94.2476 47.3922 93.9555C47.5202 93.9154 47.6503 93.8714 47.7544 93.7874C47.8584 93.7033 47.9325 93.5693 47.9125 93.4372C47.8764 93.1991 47.5883 93.105 47.3502 93.065C46.7878 92.9709 46.2215 92.8989 45.6532 92.8489C46.7778 92.8308 47.8985 92.5127 48.861 91.9284C49.0331 91.8223 49.2172 91.6862 49.2452 91.4841C49.2732 91.272 49.1031 91.0739 48.903 90.9979C48.7029 90.9218 48.4808 90.9358 48.2687 90.9538C47.5623 91.0099 46.8559 91.0659 46.1495 91.1219C47.118 90.8998 48.0545 90.5336 48.917 90.0353C49.1051 89.9273 49.2952 89.8072 49.4173 89.6271C49.5373 89.447 49.5714 89.1909 49.4393 89.0168C49.2692 88.7947 48.937 88.8107 48.6609 88.8467C47.9165 88.9467 47.1701 89.0468 46.4257 89.1468C47.3201 88.9187 48.1906 88.6025 49.0231 88.2023C49.3552 88.0422 49.7355 87.7601 49.6514 87.4019C49.6034 87.2018 49.4113 87.0617 49.2112 87.0137C49.0111 86.9657 48.8009 86.9937 48.5968 87.0197C46.7338 87.2698 44.8708 87.522 43.0078 87.7721C43.7862 87.3118 44.4866 86.8976 45.0789 86.3633C45.209 86.2473 45.3351 86.1192 45.4011 85.9591C45.4671 85.797 45.4591 85.5949 45.3371 85.4708C45.165 85.2947 44.8728 85.3508 44.6387 85.4208C43.6301 85.721 42.6276 86.0391 41.639 86.3933C41.1388 86.5734 40.5865 86.7035 39.9962 86.7936" stroke="#2E2854" stroke-width="0.5" stroke-linecap="round" stroke-linejoin="round"/>
<path d="M31.8695 94.1564C33.2002 94.3866 34.545 94.5426 35.8937 94.6207C36.6741 92.1353 37.0103 89.5119 36.8822 86.9105C36.1138 86.8685 35.3294 86.7784 34.551 86.6523L31.8695 94.1564Z" fill="white"/>
<path d="M32.5579 68.6391C29.116 71.4266 27.0569 75.847 27.1409 80.2774C27.167 81.6382 27.4151 83.0689 28.2876 84.1155C29.084 85.072 30.2927 85.5803 31.4833 85.9425C32.4538 86.2367 33.4964 86.4808 34.553 86.6529C34.3829 89.6325 33.8446 92.6001 32.6499 95.7699C27.8053 95.0675 23.2108 92.5441 20.1732 88.706C17.1335 84.8679 15.7287 79.7331 16.5832 74.9125C17.2576 71.1004 19.2667 67.6225 21.79 64.6869C24.5395 61.4912 27.9554 58.9018 31.7595 57.0508L32.5579 68.6411V68.6391Z" fill="#0084FF"/>
<g style="mix-blend-mode:multiply" opacity="0.15">
<path d="M33.1882 94.2065C22.6365 89.8621 18.1881 83.0524 16.3711 78.8281C16.6012 82.3941 17.948 85.896 20.1712 88.7055C23.2108 92.5436 27.8033 95.067 32.648 95.7693C32.8461 95.2431 33.0242 94.7228 33.1882 94.2065Z" fill="#2E2854"/>
</g>
<path d="M31.1771 92.2814C30.7949 92.1093 30.2946 92.2734 30.0905 92.6396C29.8884 93.0058 30.0185 93.5221 30.3727 93.7442C30.7269 93.9663 31.2511 93.8563 31.4813 93.5061C31.7114 93.1559 31.6774 92.5075 31.1771 92.2814Z" fill="#2E2854"/>
<path d="M34.5509 86.6505C34.3808 89.6321 33.8425 92.5997 32.6479 95.7695C27.8032 95.0671 23.2087 92.5437 20.1711 88.7056C17.1314 84.8675 15.7267 79.7327 16.5811 74.9121" stroke="#2E2854" stroke-width="0.5" stroke-linecap="round" stroke-linejoin="round"/>
</g>
<g style="mix-blend-mode:multiply" opacity="0.15">
<path d="M31.8411 71.9367C26.3127 72.0939 20.7753 71.9592 15.2604 71.5325C12.3098 71.3035 9.9835 68.9547 9.77242 66.0041C9.35027 60.0805 9.24249 54.2737 9.39518 48.4983C9.47602 45.422 11.9371 42.9474 15.0089 42.7633C20.8517 42.4085 26.7483 42.5612 32.7258 43.392C35.5866 43.7917 37.7422 46.2214 37.8096 49.1091C37.9488 54.88 37.8545 60.6419 37.603 66.2915C37.4638 69.3903 34.9399 71.8469 31.8366 71.9367H31.8411Z" fill="#2E2854"/>
</g>
<path d="M27.5117 68.3527C21.9834 68.5099 16.446 68.3752 10.9311 67.9485C7.98048 67.7195 5.65415 65.3707 5.44308 62.4201C5.02092 56.4965 4.91314 50.6897 5.06583 44.9143C5.14667 41.838 7.60773 39.3634 10.6796 39.1793C16.5223 38.8245 22.419 38.9772 28.3965 39.808C31.2572 40.2077 33.4129 42.6374 33.4803 45.5251C33.6195 51.296 33.5252 57.0579 33.2737 62.7076C33.1345 65.8063 30.6105 68.2629 27.5073 68.3527H27.5117Z" fill="white"/>
<path d="M27.5117 68.3527C21.9834 68.5099 16.446 68.3752 10.9311 67.9485C7.98048 67.7195 5.65415 65.3707 5.44308 62.4201C5.02092 56.4965 4.91314 50.6897 5.06583 44.9143C5.14667 41.838 7.60773 39.3634 10.6796 39.1793C16.5223 38.8245 22.419 38.9772 28.3965 39.808C31.2572 40.2077 33.4129 42.6374 33.4803 45.5251C33.6195 51.296 33.5252 57.0579 33.2737 62.7076C33.1345 65.8063 30.6105 68.2629 27.5073 68.3527H27.5117Z" stroke="#2E2854" stroke-linecap="round" stroke-linejoin="round"/>
<path d="M12.8981 51.8211C12.8981 50.0337 14.0523 49.0098 15.5792 49.0098C17.1061 49.0098 18.2603 50.0337 18.2603 51.8211C18.2603 53.6085 17.1061 54.6325 15.5792 54.6325C14.0523 54.6325 12.8981 53.622 12.8981 51.8211ZM21.5028 49.158H23.9369L17.0477 59.2447H14.6136L21.5028 49.158ZM16.2124 51.8211C16.2124 50.8555 15.8936 50.5681 15.5792 50.5681C15.2648 50.5681 14.946 50.8555 14.946 51.8211C14.946 52.7867 15.2648 53.0741 15.5792 53.0741C15.8936 53.0741 16.2124 52.7867 16.2124 51.8211ZM20.2902 56.5771C20.2902 54.7897 21.4444 53.7657 22.9713 53.7657C24.4983 53.7657 25.6525 54.7897 25.6525 56.5771C25.6525 58.3645 24.4983 59.3884 22.9713 59.3884C21.4444 59.3884 20.2902 58.378 20.2902 56.5771ZM23.6046 56.5771C23.6046 55.6115 23.2857 55.3241 22.9713 55.3241C22.657 55.3241 22.3381 55.6115 22.3381 56.5771C22.3381 57.5426 22.657 57.83 22.9713 57.83C23.2857 57.83 23.6046 57.5426 23.6046 56.5771Z" fill="#2ED66B"/>
</svg>
