<svg width="105" height="105" viewBox="0 0 105 105" fill="none" xmlns="http://www.w3.org/2000/svg">
<circle cx="52.5" cy="52.5" r="52.5" fill="#2ED66B"/>
<path d="M66.513 89.4779C66.513 89.4779 73.8589 74.7977 66.513 64.9219H37.489V78.3662L49.6278 90.505L66.5072 89.4779H66.513Z" fill="#E3614A"/>
<path d="M38.5914 11H74.6364C76.0986 11 77.2881 12.1895 77.2881 13.6517V76.6839C77.2881 78.1462 76.0986 79.3357 74.6364 79.3357H38.5914C37.1292 79.3357 35.9397 78.1462 35.9397 76.6839V13.6517C35.9397 12.1895 37.1292 11 38.5914 11Z" fill="#2A2B4A"/>
<path d="M73.7776 13.7324H39.4502C39.0817 13.7324 38.783 14.0312 38.783 14.3997V75.9349C38.783 76.3034 39.0817 76.6022 39.4502 76.6022H73.7776C74.1462 76.6022 74.4449 76.3034 74.4449 75.9349V14.3997C74.4449 14.0312 74.1462 13.7324 73.7776 13.7324Z" fill="#87B8C4"/>
<path d="M73.7776 13.7324H39.4502C39.0817 13.7324 38.783 14.0312 38.783 14.3997V75.9349C38.783 76.3034 39.0817 76.6022 39.4502 76.6022H73.7776C74.1462 76.6022 74.4449 76.3034 74.4449 75.9349V14.3997C74.4449 14.0312 74.1462 13.7324 73.7776 13.7324Z" fill="#0084FF"/>
<path d="M38.783 14.3997V52.1622H74.4507V14.3997C74.4507 14.0284 74.149 13.7324 73.7834 13.7324H39.4502C39.0847 13.7324 38.7887 14.0342 38.7887 14.3997H38.783Z" fill="#F58A1F"/>
<path d="M42.2006 52.0874C43.9413 50.3466 46.9122 51.0894 47.6317 53.4452L47.7419 53.8165C48.7341 57.0717 47.8522 60.6112 45.4442 63.0134L38.516 69.9416C48.8908 73.8815 56.2658 83.9139 56.2658 95.6697V97.7644H53.8229C45.7459 97.7644 38.3767 93.1631 34.8314 85.91L28.8897 73.7654C27.2476 70.4058 27.9207 66.3731 30.5608 63.7271L42.2006 52.0874Z" fill="#E3614A"/>
<path d="M42.1309 89.4785V103.422C46.0185 104.449 50.1035 105 54.316 105C58.5286 105 62.6136 104.455 66.507 103.422V89.4785H42.1309Z" fill="#E3614A"/>
<path d="M46.6975 74.8164C51.2699 78.7563 54.5367 84.17 55.7436 90.3206" stroke="#2A2B4A" stroke-width="1.55" stroke-miterlimit="10" stroke-linecap="round"/>
<path d="M39.189 70.1672C37.779 69.6855 36.3284 69.3258 34.8546 69.0879" stroke="#2A2B4A" stroke-width="1.55" stroke-miterlimit="10" stroke-linecap="round"/>
<path d="M45.3465 69.4805V68.5045H46.6745C46.9199 68.5045 47.1119 68.4325 47.2505 68.2885C47.3892 68.1445 47.4585 67.9685 47.4585 67.7605C47.4585 67.6165 47.4265 67.4885 47.3625 67.3765C47.2985 67.2645 47.2079 67.1765 47.0905 67.1125C46.9785 67.0485 46.8399 67.0165 46.6745 67.0165H45.3465V66.0645H46.5705C46.7785 66.0645 46.9465 66.0138 47.0745 65.9125C47.2025 65.8058 47.2665 65.6458 47.2665 65.4325C47.2665 65.2245 47.2025 65.0698 47.0745 64.9685C46.9465 64.8618 46.7785 64.8085 46.5705 64.8085H45.3465V63.8325H46.8105C47.1732 63.8325 47.4799 63.8991 47.7305 64.0325C47.9865 64.1658 48.1812 64.3445 48.3145 64.5685C48.4479 64.7925 48.5145 65.0405 48.5145 65.3125C48.5145 65.6591 48.4025 65.9525 48.1785 66.1925C47.9545 66.4325 47.6239 66.5978 47.1865 66.6885L47.2185 66.2645C47.6932 66.3551 48.0585 66.5391 48.3145 66.8165C48.5759 67.0938 48.7065 67.4351 48.7065 67.8405C48.7065 68.1498 48.6292 68.4298 48.4745 68.6805C48.3252 68.9258 48.1065 69.1205 47.8185 69.2645C47.5359 69.4085 47.1945 69.4805 46.7945 69.4805H45.3465ZM44.3865 69.4805V63.8325H45.6265V69.4805H44.3865ZM52.2075 69.5765C51.7809 69.5765 51.3862 69.5018 51.0235 69.3525C50.6662 69.2031 50.3515 68.9951 50.0795 68.7285C49.8075 68.4618 49.5969 68.1525 49.4475 67.8005C49.2982 67.4431 49.2235 67.0591 49.2235 66.6485C49.2235 66.2325 49.2982 65.8485 49.4475 65.4965C49.5969 65.1445 49.8049 64.8378 50.0715 64.5765C50.3382 64.3098 50.6502 64.1045 51.0075 63.9605C51.3702 63.8111 51.7649 63.7365 52.1915 63.7365C52.6129 63.7365 53.0022 63.8111 53.3595 63.9605C53.7222 64.1045 54.0369 64.3098 54.3035 64.5765C54.5755 64.8378 54.7862 65.1471 54.9355 65.5045C55.0849 65.8565 55.1595 66.2405 55.1595 66.6565C55.1595 67.0671 55.0849 67.4511 54.9355 67.8085C54.7862 68.1605 54.5782 68.4698 54.3115 68.7365C54.0449 68.9978 53.7302 69.2031 53.3675 69.3525C53.0102 69.5018 52.6235 69.5765 52.2075 69.5765ZM52.1915 68.4325C52.5275 68.4325 52.8209 68.3578 53.0715 68.2085C53.3275 68.0591 53.5249 67.8511 53.6635 67.5845C53.8022 67.3125 53.8715 67.0005 53.8715 66.6485C53.8715 66.3818 53.8315 66.1418 53.7515 65.9285C53.6715 65.7098 53.5569 65.5231 53.4075 65.3685C53.2582 65.2085 53.0795 65.0885 52.8715 65.0085C52.6689 64.9231 52.4422 64.8805 52.1915 64.8805C51.8555 64.8805 51.5595 64.9551 51.3035 65.1045C51.0529 65.2485 50.8582 65.4538 50.7195 65.7205C50.5809 65.9818 50.5115 66.2911 50.5115 66.6485C50.5115 66.9151 50.5515 67.1578 50.6315 67.3765C50.7115 67.5951 50.8235 67.7845 50.9675 67.9445C51.1169 68.0991 51.2955 68.2191 51.5035 68.3045C51.7115 68.3898 51.9409 68.4325 52.1915 68.4325ZM58.731 69.5765C58.3043 69.5765 57.9096 69.5018 57.547 69.3525C57.1896 69.2031 56.875 68.9951 56.603 68.7285C56.331 68.4618 56.1203 68.1525 55.971 67.8005C55.8216 67.4431 55.747 67.0591 55.747 66.6485C55.747 66.2325 55.8216 65.8485 55.971 65.4965C56.1203 65.1445 56.3283 64.8378 56.595 64.5765C56.8616 64.3098 57.1736 64.1045 57.531 63.9605C57.8936 63.8111 58.2883 63.7365 58.715 63.7365C59.1363 63.7365 59.5256 63.8111 59.883 63.9605C60.2456 64.1045 60.5603 64.3098 60.827 64.5765C61.099 64.8378 61.3096 65.1471 61.459 65.5045C61.6083 65.8565 61.683 66.2405 61.683 66.6565C61.683 67.0671 61.6083 67.4511 61.459 67.8085C61.3096 68.1605 61.1016 68.4698 60.835 68.7365C60.5683 68.9978 60.2536 69.2031 59.891 69.3525C59.5336 69.5018 59.147 69.5765 58.731 69.5765ZM58.715 68.4325C59.051 68.4325 59.3443 68.3578 59.595 68.2085C59.851 68.0591 60.0483 67.8511 60.187 67.5845C60.3256 67.3125 60.395 67.0005 60.395 66.6485C60.395 66.3818 60.355 66.1418 60.275 65.9285C60.195 65.7098 60.0803 65.5231 59.931 65.3685C59.7816 65.2085 59.603 65.0885 59.395 65.0085C59.1923 64.9231 58.9656 64.8805 58.715 64.8805C58.379 64.8805 58.083 64.9551 57.827 65.1045C57.5763 65.2485 57.3816 65.4538 57.243 65.7205C57.1043 65.9818 57.035 66.2911 57.035 66.6485C57.035 66.9151 57.075 67.1578 57.155 67.3765C57.235 67.5951 57.347 67.7845 57.491 67.9445C57.6403 68.0991 57.819 68.2191 58.027 68.3045C58.235 68.3898 58.4643 68.4325 58.715 68.4325ZM65.8963 69.4805L63.6083 66.5365L65.8243 63.8325H67.3763L64.8803 66.7685V66.2565L67.4563 69.4805H65.8963ZM62.4803 69.4805V63.8325H63.7363V69.4805H62.4803Z" fill="white"/>
<path d="M48.607 45.0722C50.4403 45.0722 51.9264 43.5861 51.9264 41.7529C51.9264 39.9197 50.4403 38.4336 48.607 38.4336C46.7738 38.4336 45.2877 39.9197 45.2877 41.7529C45.2877 43.5861 46.7738 45.0722 48.607 45.0722Z" fill="#282D4F"/>
<path d="M49.5903 41.9159C49.6785 41.3728 49.3097 40.861 48.7666 40.7729C48.2234 40.6847 47.7117 41.0535 47.6235 41.5967C47.5353 42.1398 47.9042 42.6515 48.4473 42.7397C48.9904 42.8279 49.5022 42.459 49.5903 41.9159Z" stroke="#F9FAFA" stroke-width="1.14" stroke-miterlimit="10"/>
<path d="M65.6642 45.0722C67.4974 45.0722 68.9835 43.5861 68.9835 41.7529C68.9835 39.9197 67.4974 38.4336 65.6642 38.4336C63.831 38.4336 62.3448 39.9197 62.3448 41.7529C62.3448 43.5861 63.831 45.0722 65.6642 45.0722Z" fill="#282D4F"/>
<path d="M66.3903 42.4382C66.7669 42.037 66.7469 41.4065 66.3458 41.0299C65.9446 40.6533 65.3141 40.6732 64.9375 41.0744C64.5609 41.4756 64.5808 42.1061 64.982 42.4827C65.3832 42.8593 66.0137 42.8393 66.3903 42.4382Z" stroke="#F9FAFA" stroke-width="1.14" stroke-miterlimit="10"/>
<path d="M55.3757 27.0982C55.3757 27.0982 55.5952 27.4543 55.8668 27.6274L57.7211 26.8803L59.8702 27.4021C59.8702 27.4021 61.8702 30.4216 62.3456 33.1538C62.7042 35.2134 61.6458 37.8884 60.8806 38.1601C60.1153 38.4317 51.6853 40.9842 52.2659 30.6875L50.6013 30.4589C50.6013 30.4589 45.8384 32.9161 46.6898 41.0098H67.5623C67.5623 41.0098 66.8385 34.4962 65.3949 31.2713C63.9514 28.0456 62.4806 26.6907 62.4806 26.6907C62.657 25.6298 64.773 24.5871 64.773 24.5871C64.773 24.5871 64.6587 23.9643 64.2214 24.0016C64.2214 24.0016 62.1369 25.0252 61.9953 25.2944C61.8537 25.5635 61.5804 25.6845 61.5804 25.6845C61.5804 25.6845 59.7253 26.3437 59.5224 26.347C59.3195 26.3503 58.917 26.1739 57.7219 26.0936C56.5269 26.0124 55.3765 27.099 55.3765 27.099L55.3757 27.0982Z" fill="#F9FAFA"/>
<path d="M62.7076 28.0443C63.0306 28.8336 62.845 29.1358 62.6107 29.2303C62.3755 29.3247 61.7957 28.817 61.4728 28.0277C61.1498 27.2385 61.3162 26.9801 61.5697 26.8418C61.8231 26.7027 62.3846 27.2551 62.7076 28.0443Z" fill="#F0B74D"/>
<path d="M66.7349 34.7504L65.1092 35.3127C64.604 35.4875 64.0922 35.1736 63.9655 34.6121L63.2102 31.2547C63.0835 30.6932 63.3907 30.0961 63.8959 29.9213L64.6189 29.6712C65.023 29.5313 65.4462 29.7035 65.6583 30.0936L67.3154 33.1388C67.6376 33.7309 67.3461 34.5384 66.7332 34.7504H66.7349Z" fill="#0C0D17"/>
<path d="M64.8731 30.4258L64.652 32.7786L65.1522 32.5915L65.4305 34.3505L65.6052 31.9231L65.0619 32.126L64.8731 30.4258Z" fill="#F9FAFA"/>
<path d="M66.6952 34.0977C66.6952 34.0977 68.6662 34.959 67.4497 37.3242" stroke="#0C0D17" stroke-width="2" stroke-miterlimit="10"/>
<path d="M65.6061 34.793C65.6061 34.793 67.7494 35.1516 66.8558 37.4928" stroke="#0C0D17" stroke-width="2" stroke-miterlimit="10"/>
<path d="M44.9995 41.0129C44.9995 41.0129 44.9589 37.5536 48.6501 37.4757C52.3413 37.3987 52.526 40.5624 52.526 40.5624L61.6417 40.3189C61.6417 40.3189 61.7883 36.6973 65.6766 36.6973C69.5648 36.6973 69.3768 41.4543 69.3768 41.4543L44.5531 41.8601C44.5531 41.8601 44.1597 41.552 44.5531 41.0849L44.9995 41.0129Z" fill="#0C0D17"/>
<path d="M45.5587 40.8647C45.5587 40.8647 45.9032 38.087 48.6072 38" stroke="#F9FAFA" stroke-width="1.14" stroke-miterlimit="10" stroke-linecap="round"/>
<path d="M62.48 40.3404C62.48 40.3404 62.6415 37.8045 65.873 37.4766" stroke="#F9FAFA" stroke-width="1.14" stroke-miterlimit="10" stroke-linecap="round"/>
</svg>
