<svg width="105" height="105" viewBox="0 0 105 105" fill="none" xmlns="http://www.w3.org/2000/svg">
<circle cx="52.5" cy="52.5" r="52.5" fill="#0084FF"/>
<path d="M36.5907 97.6895H5V23H29.9033L36.5907 32.187V97.6895Z" fill="#2ED66B"/>
<path d="M17.9106 95.1907H5.96399V23.9648H11.9373L17.9106 32.1877V95.1907Z" fill="#110C08"/>
<path d="M17.9107 95.1908H7.14746V24.9902H12.6821L17.9107 32.1878V95.1908Z" fill="#2F2E33"/>
<path d="M29.9084 23H12.5495C11.9986 23 11.6824 23.6274 12.0037 24.0712L17.9056 32.187H36.5907L29.9084 23Z" fill="#35E475"/>
<path d="M28.1434 36.873H26.9447C24.4092 36.873 22.3538 38.9285 22.3538 41.464V59.3584C22.3538 61.8939 24.4092 63.9494 26.9447 63.9494H28.1434C30.6789 63.9494 32.7344 61.8939 32.7344 59.3584V41.464C32.7344 38.9285 30.6789 36.873 28.1434 36.873Z" fill="white"/>
<path d="M31.755 41.2695H23.7719V44.4832H31.755V41.2695Z" fill="#F2B92E"/>
<path d="M29.7758 41.9336H24.3483V42.5253H29.7758V41.9336Z" fill="#110C08"/>
<path d="M31.1122 41.9336H30.4032V42.5253H31.1122V41.9336Z" fill="#110C08"/>
<path d="M29.7401 47.8452C29.7401 48.9368 28.8576 49.8193 27.766 49.8193C26.6744 49.8193 25.7919 48.9368 25.7919 47.8452C25.7919 46.7536 26.6744 45.8711 27.766 45.8711C28.8576 45.8711 29.7401 46.7536 29.7401 47.8452Z" fill="#110C08"/>
<path d="M27.6632 47.8457C27.6632 48.5649 27.3942 49.1465 27.0616 49.1465C26.729 49.1465 26.4601 48.5649 26.4601 47.8457C26.4601 47.1264 26.729 46.5449 27.0616 46.5449C27.3942 46.5449 27.6632 47.1264 27.6632 47.8457Z" fill="#F2B92E"/>
<path d="M28.6115 47.0449H27.0616V48.565H28.6115V47.0449Z" fill="#F2B92E"/>
<path d="M59.2876 81.8193H53.9138C53.5199 81.8193 53.2014 81.1307 53.2014 80.2788C53.2014 79.4269 53.5199 78.7383 53.9138 78.7383H59.2876C59.6815 78.7383 60 79.4269 60 80.2788C60 81.1307 59.6815 81.8193 59.2876 81.8193Z" fill="#403D47"/>
<path d="M55.9119 80.2793C55.9119 80.9985 56.1808 81.58 56.5134 81.58C56.846 81.58 57.1149 80.9985 57.1149 80.2793C57.1149 79.56 56.846 78.9785 56.5134 78.9785C56.1808 78.9785 55.9119 79.56 55.9119 80.2793Z" fill="#F2B92E"/>
<path d="M54.9636 80.998H56.5134V79.4779H54.9636V80.998Z" fill="#F2B92E"/>
<path d="M28.6115 47.8047H29.4796C31.3785 47.8047 32.9189 51.1357 32.9189 55.242V89.6995C32.9189 93.8059 34.4594 97.1369 36.3583 97.1369H48.4764C50.3754 97.1369 51.9158 93.8059 51.9158 89.6995V86.8328C51.9158 83.1906 53.2793 80.2422 54.9636 80.2422" stroke="#110C08" stroke-width="1.89" stroke-miterlimit="10"/>
<path d="M41.6864 99.2148C47.186 99.2148 51.6443 94.7564 51.6443 89.2568C51.6443 83.7572 47.186 79.2988 41.6864 79.2988C36.1867 79.2988 31.7284 83.7572 31.7284 89.2568C31.7284 94.7564 36.1867 99.2148 41.6864 99.2148Z" fill="#282D4F"/>
<path d="M44.6361 89.7419C44.9006 88.1125 43.7942 86.5772 42.1648 86.3127C40.5354 86.0483 39.0001 87.1547 38.7356 88.7841C38.4711 90.4135 39.5776 91.9488 41.207 92.2133C42.8364 92.4778 44.3717 91.3713 44.6361 89.7419Z" stroke="#F16262" stroke-width="1.14" stroke-miterlimit="10"/>
<path d="M92.8576 99.2148C98.3573 99.2148 102.816 94.7564 102.816 89.2568C102.816 83.7572 98.3573 79.2988 92.8576 79.2988C87.358 79.2988 82.8997 83.7572 82.8997 89.2568C82.8997 94.7564 87.358 99.2148 92.8576 99.2148Z" fill="#282D4F"/>
<path d="M95.0357 91.3086C96.1655 90.1051 96.1057 88.2136 94.9022 87.0838C93.6987 85.954 91.8071 86.0138 90.6774 87.2173C89.5476 88.4208 89.6074 90.3124 90.8109 91.4421C92.0144 92.5719 93.9059 92.5121 95.0357 91.3086Z" stroke="#F16262" stroke-width="1.14" stroke-miterlimit="10"/>
<path d="M61.9922 45.2945C61.9922 45.2945 62.6506 46.3628 63.4655 46.8821L69.0284 44.641L75.4757 46.2063C75.4757 46.2063 81.4758 55.2648 82.9019 63.4613C83.9777 69.6403 80.8025 77.6653 78.5068 78.4802C76.2111 79.2952 50.9212 86.9525 52.6628 56.0624L47.6689 55.3766C47.6689 55.3766 33.3804 62.7482 35.9345 87.0295H98.5519C98.5519 87.0295 96.3805 67.4887 92.0499 57.814C87.7194 48.1367 83.3069 44.0721 83.3069 44.0721C83.8361 40.8894 90.1841 37.7614 90.1841 37.7614C90.1841 37.7614 89.8412 35.893 88.5294 36.0048C88.5294 36.0048 82.2758 39.0757 81.851 39.8832C81.4261 40.6906 80.6062 41.0534 80.6062 41.0534C80.6062 41.0534 75.0409 43.0311 74.4322 43.041C73.8235 43.0509 72.616 42.5217 69.0308 42.2807C65.4457 42.0372 61.9947 45.2969 61.9947 45.2969L61.9922 45.2945Z" fill="#F16262"/>
<path d="M47.3953 55.1619L52.7605 55.9283C60.4253 57.4607 60.042 53.2457 58.5091 52.096C56.9761 50.9463 47.3953 50.1798 46.2455 52.4792C45.3258 54.3187 46.6288 55.0341 47.3953 55.1619Z" fill="#0C0D17"/>
<path d="M83.9877 48.1368C84.9567 50.5046 84.4001 51.4114 83.697 51.6947C82.9914 51.9779 81.2522 50.4549 80.2833 48.0871C79.3143 45.7194 79.8137 44.9442 80.574 44.5293C81.3342 44.1119 83.0187 45.7691 83.9877 48.1368Z" fill="#F0B74D"/>
<path d="M96.0701 68.2473L91.193 69.9343C89.6774 70.4586 88.142 69.5169 87.7619 67.8324L85.496 57.7602C85.1159 56.0757 86.0376 54.2843 87.5532 53.7601L89.7222 53.0098C90.9346 52.5899 92.2042 53.1067 92.8402 54.2769L97.8118 63.4125C98.7783 65.1889 97.9037 67.6113 96.0652 68.2473H96.0701Z" fill="#0C0D17"/>
<path d="M90.4849 55.2676L89.8215 62.3261L91.3222 61.7646L92.157 67.0417L92.6812 59.7596L91.0514 60.3683L90.4849 55.2676Z" fill="#F16262"/>
<path d="M30.8637 87.0347C30.8637 87.0347 30.7419 76.6569 41.8154 76.4233C52.889 76.1923 53.443 85.6832 53.443 85.6832L80.7902 84.9527C80.7902 84.9527 81.2299 74.0879 92.8948 74.0879C104.56 74.0879 103.996 88.359 103.996 88.359L29.5245 89.5764C29.5245 89.5764 28.3444 88.6522 29.5245 87.2509L30.8637 87.0347Z" fill="#0C0D17"/>
<path d="M32.5408 86.5842C32.5408 86.5842 33.5743 78.2511 41.6863 77.9902" stroke="#F16262" stroke-width="1.14" stroke-miterlimit="10" stroke-linecap="round"/>
<path d="M83.3044 85.0153C83.3044 85.0153 83.7889 77.4077 93.4835 76.4238" stroke="#F16262" stroke-width="1.14" stroke-miterlimit="10" stroke-linecap="round"/>
</svg>
